<svg width="61" height="32" viewBox="0 0 61 32" fill="none" xmlns="http://www.w3.org/2000/svg">
<g clip-path="url(#clip0_2_497)">
<path fill-rule="evenodd" clip-rule="evenodd" d="M28.7448 2.11724C29.638 3.01042 29.3966 4.6999 28.2057 5.8908C27.0148 7.0817 25.3254 7.32305 24.4322 6.42988C23.539 5.5367 23.7804 3.84722 24.9713 2.65632C26.1622 1.46542 27.8516 1.22407 28.7448 2.11724ZM16.5732 1.84084L20.8998 1.82683L20.9742 24.8126L16.6477 24.8266L16.5732 1.84084ZM24.4536 8.47597H28.7801V24.8195H24.4536V8.47597ZM11.8074 16.0711C10.9878 15.6042 9.98719 15.2325 8.78644 14.9466C7.91923 14.7084 7.23309 14.4892 6.71848 14.2891C6.20387 14.089 5.84174 13.8698 5.63209 13.6411C5.41291 13.4123 5.30808 13.155 5.30808 12.8691C5.30808 12.4403 5.48914 12.0972 5.8608 11.8495C6.23246 11.6017 6.7566 11.4778 7.44274 11.4778C8.05265 11.4778 8.75785 11.6112 9.54882 11.8685C10.3398 12.1354 11.0545 12.4975 11.693 12.974L13.8372 10.0388C12.9986 9.41937 12.0266 8.94288 10.9116 8.60934C9.80612 8.2758 8.67208 8.10426 7.52851 8.10426C6.23246 8.10426 5.08889 8.31392 4.10733 8.73323C3.12576 9.15254 2.35385 9.72432 1.77254 10.4486C1.20075 11.1729 0.914858 12.021 0.914858 12.974C0.914858 13.9555 1.14357 14.7751 1.601 15.4422C2.05843 16.1093 2.72551 16.662 3.59272 17.0908C4.45993 17.5197 5.5082 17.8913 6.72801 18.1963C7.54757 18.4345 8.18606 18.6442 8.66255 18.8252C9.12951 19.0063 9.46305 19.1969 9.65365 19.397C9.84424 19.5972 9.93954 19.8545 9.93954 20.1689C9.93954 20.674 9.71083 21.0647 9.2534 21.3697C8.79597 21.6651 8.18606 21.8176 7.41415 21.8176C6.54694 21.8176 5.66068 21.6365 4.75535 21.2839C3.85002 20.9218 2.99235 20.4262 2.17279 19.7782L0 22.7801C1.14357 23.5901 2.33479 24.1905 3.5546 24.5908C4.77441 24.9815 6.06093 25.1816 7.41415 25.1816C9.606 25.1816 11.3023 24.7146 12.5126 23.7712C13.7229 22.8277 14.3232 21.5984 14.3232 20.0736C14.3232 19.1874 14.104 18.425 13.6752 17.7674C13.2464 17.1004 12.6269 16.5381 11.8074 16.0711ZM56.9496 9.2383C58.1885 9.99115 59.1796 11.0108 59.9038 12.2974C60.6281 13.5839 60.9902 15.0324 60.9998 16.6143C60.9998 16.8628 60.982 17.1203 60.9636 17.3866L60.9616 17.4148C60.9426 17.6912 60.9045 17.9294 60.8568 18.1486H48.5634C48.6683 18.5298 48.8112 18.8919 49.0018 19.2255C49.4116 19.9688 49.9738 20.5501 50.679 20.979C51.3747 21.4078 52.1847 21.627 53.0901 21.627C53.9192 21.627 54.6911 21.4936 55.3963 21.2172C56.0919 20.9408 56.759 20.512 57.3785 19.9116L59.8085 22.5609C58.9318 23.4281 57.9312 24.0761 56.8067 24.5145C55.6822 24.9529 54.4814 25.1721 53.1949 25.1721C51.5272 25.1721 50.0215 24.8004 48.6873 24.0475C47.3532 23.2947 46.3049 22.275 45.5425 20.9885C44.7801 19.702 44.3989 18.263 44.3989 16.662C44.3989 15.061 44.7611 13.6125 45.5044 12.3164C46.2382 11.0108 47.2388 9.99115 48.5062 9.2383C49.7737 8.48545 51.1746 8.11379 52.7279 8.11379C54.3003 8.11379 55.7107 8.48545 56.9496 9.2383ZM48.9256 14.0699C48.7731 14.3748 48.6492 14.7084 48.5634 15.0515H56.9115C56.8162 14.6893 56.6923 14.3558 56.5208 14.0318C56.1396 13.3075 55.625 12.7167 54.9674 12.2783C54.3099 11.8399 53.557 11.6207 52.6993 11.6207C51.8893 11.6207 51.146 11.8399 50.4789 12.2783C49.8118 12.7262 49.2972 13.317 48.9256 14.0699ZM42.1596 20.4358C41.4448 20.9694 40.7491 21.2363 40.0916 21.2363C39.3959 21.2363 38.8623 20.998 38.462 20.5215C38.0713 20.045 37.8712 19.3875 37.8712 18.5584V12.2306H42.8838V8.4759H37.8807V3.07253L33.7638 4.61635V8.4759H30.7715V12.2306H33.5446V18.6346C33.5446 20.6835 34.0688 22.2845 35.1171 23.4472C36.1653 24.6003 37.6424 25.1816 39.5484 25.1816C40.4347 25.1816 41.3019 25.0196 42.1786 24.6956C42.9029 24.4287 43.5509 24.0475 44.1417 23.5615C44.2561 23.4662 44.38 23.3614 44.4848 23.247L42.4073 20.2452C42.3311 20.3119 42.2453 20.3786 42.1596 20.4358Z" fill="#2F2F30"/>
</g>
<defs>
<clipPath id="clip0_2_497">
<rect width="61" height="24" fill="white" transform="translate(0 1.5)"/>
</clipPath>
</defs>
</svg>
